<svg width="235" height="38" viewBox="0 0 235 38" fill="none" xmlns="http://www.w3.org/2000/svg">
<path d="M16.4391 4.38184C16.4391 4.38184 10.0217 12.7075 10.0217 18.91C10.0217 25.1124 16.4391 33.4381 16.4391 33.4381" stroke="#28C3DD" stroke-width="4.27825"/>
<path d="M16.7064 4.33691C16.7064 4.33691 23.1238 12.6882 23.1238 18.9097C23.1238 25.1312 16.7064 33.4825 16.7064 33.4825" stroke="#28C3DD" stroke-width="4.27825"/>
<path d="M16.5728 35.4879C16.5728 35.4879 30.2097 33.616 31.1456 17.5727C31.2946 15.0171 29.8086 11.1553 29.8086 11.1553" stroke="#28C3DD" stroke-width="0.802173"/>
<path d="M15.7706 32.5467C7.72224 32.5467 2.26733 25.6211 2.26733 17.5728C2.26733 9.52447 8.7918 3 16.8401 3" stroke="#28C3DD" stroke-width="4.27825"/>
<path d="M14.7012 35.6217C22.7229 35.6217 31.1458 26.4249 31.1458 17.4391C31.1457 9.28369 24.755 3 16.7066 3" stroke="#28C3DD" stroke-width="4.27825"/>
<line x1="31.1455" y1="19.0435" x2="1.9999" y2="19.0435" stroke="#28C3DD" stroke-width="2.67391"/>
<path d="M42.0093 25.7823V12.4875H39.7148V10.2695H46.9677V12.4875H44.788V25.7823H50.2181V19.7531H52.7165V28.0002H39.7148V25.7823H42.0093Z" fill="white"/>
<path d="M66.9546 22.4426H56.5787C56.7317 23.5813 57.1821 24.5034 57.9299 25.2087C58.6777 25.914 59.6337 26.2667 60.7979 26.2667C62.489 26.2667 63.8274 25.5868 64.8131 24.2272L66.9546 25.1704C66.2577 26.2497 65.3527 27.0527 64.2395 27.5796C63.1263 28.0979 61.9621 28.3571 60.7469 28.3571C58.8604 28.3571 57.2458 27.7708 55.9032 26.5981C54.569 25.4169 53.9019 23.8278 53.9019 21.8308C53.9019 19.9358 54.552 18.3764 55.8522 17.1528C57.1608 15.9291 58.6607 15.3172 60.3518 15.3172C62.0088 15.3172 63.5087 15.9163 64.8514 17.1145C66.2025 18.3042 66.9036 20.0802 66.9546 22.4426ZM64.4562 20.6836C64.2863 19.8168 63.8359 19.035 63.1051 18.3382C62.3742 17.6329 61.4777 17.2802 60.4155 17.2802C59.4468 17.2802 58.6182 17.5989 57.9299 18.2362C57.2416 18.8651 56.8209 19.6809 56.668 20.6836H64.4562Z" fill="white"/>
<path d="M81.4476 25.846V28.0002H77.2157V26.4961C76.043 27.6348 74.7343 28.2042 73.2897 28.2042C72.168 28.2042 71.1907 27.8387 70.3579 27.1079C69.5336 26.3771 69.1215 25.4424 69.1215 24.3037C69.1215 23.1565 69.5591 22.2047 70.4344 21.4484C71.3182 20.6921 72.3804 20.3139 73.6211 20.3139C74.7768 20.3139 75.8943 20.6623 76.9735 21.3592V20.1355C76.9735 19.5066 76.914 19.0223 76.795 18.6824C76.6761 18.3424 76.3956 18.0365 75.9537 17.7646C75.5204 17.4927 74.951 17.3567 74.2457 17.3567C73.0305 17.3567 72.151 17.8411 71.6071 18.8098L69.2872 18.198C70.3154 16.2775 72.0915 15.3172 74.6153 15.3172C75.5416 15.3172 76.3404 15.4447 77.0117 15.6996C77.6915 15.9461 78.1972 16.269 78.5286 16.6684C78.86 17.0593 79.0809 17.4842 79.1914 17.9431C79.3104 18.4019 79.3699 19.1327 79.3699 20.1355V25.846H81.4476ZM76.9735 23.4114C75.9282 22.5956 74.8703 22.1877 73.7995 22.1877C73.1282 22.1877 72.5674 22.3832 72.117 22.7741C71.6666 23.165 71.4414 23.6706 71.4414 24.2909C71.4414 24.8688 71.6369 25.3531 72.0278 25.744C72.4272 26.1349 72.9668 26.3304 73.6466 26.3304C74.8193 26.3304 75.9282 25.8375 76.9735 24.8518V23.4114Z" fill="white"/>
<path d="M84.8509 25.846V17.8156H82.3653V15.6614H86.7884V18.4402C87.0604 17.7179 87.4385 17.1188 87.9229 16.6429C88.4073 16.167 88.9171 15.8526 89.4525 15.6996C89.9964 15.5467 90.7357 15.4702 91.6704 15.4702H92.3078V17.9176H91.8234C90.5912 17.9176 89.6692 18.0408 89.0574 18.2872C88.454 18.5336 88.0036 18.984 87.7062 19.6384C87.4173 20.2842 87.2728 21.4484 87.2728 23.131V25.846H89.9624V28.0002H82.3653V25.846H84.8509Z" fill="white"/>
<path d="M98.7576 15.6614V17.1528C100.313 16.031 101.732 15.4702 103.015 15.4702C103.814 15.4702 104.472 15.6614 104.991 16.0438C105.518 16.4177 105.862 16.8808 106.023 17.4332C106.185 17.977 106.265 18.7758 106.265 19.8296V25.846H108.343V28.0002H103.844V19.9315C103.844 18.9968 103.703 18.3892 103.423 18.1088C103.142 17.8198 102.798 17.6754 102.39 17.6754C101.32 17.6754 100.109 18.198 98.7576 19.2432V25.846H100.886V28.0002H94.1688V25.846H96.3357V17.8156H94.1688V15.6614H98.7576Z" fill="white"/>
<path d="M120.233 25.7823V12.4875H117.939V10.2695H125.192V12.4875H123.012V25.7823H128.442V19.7531H130.941V28.0002H117.939V25.7823H120.233Z" fill="white"/>
<path d="M144.707 25.846V28.0002H140.475V26.4961C139.302 27.6348 137.994 28.2042 136.549 28.2042C135.427 28.2042 134.45 27.8387 133.617 27.1079C132.793 26.3771 132.381 25.4424 132.381 24.3037C132.381 23.1565 132.819 22.2047 133.694 21.4484C134.578 20.6921 135.64 20.3139 136.88 20.3139C138.036 20.3139 139.154 20.6623 140.233 21.3592V20.1355C140.233 19.5066 140.173 19.0223 140.054 18.6824C139.935 18.3424 139.655 18.0365 139.213 17.7646C138.78 17.4927 138.21 17.3567 137.505 17.3567C136.29 17.3567 135.41 17.8411 134.866 18.8098L132.547 18.198C133.575 16.2775 135.351 15.3172 137.875 15.3172C138.801 15.3172 139.6 15.4447 140.271 15.6996C140.951 15.9461 141.457 16.269 141.788 16.6684C142.119 17.0593 142.34 17.4842 142.451 17.9431C142.57 18.4019 142.629 19.1327 142.629 20.1355V25.846H144.707ZM140.233 23.4114C139.188 22.5956 138.13 22.1877 137.059 22.1877C136.388 22.1877 135.827 22.3832 135.376 22.7741C134.926 23.165 134.701 23.6706 134.701 24.2909C134.701 24.8688 134.896 25.3531 135.287 25.744C135.687 26.1349 136.226 26.3304 136.906 26.3304C138.079 26.3304 139.188 25.8375 140.233 24.8518V23.4114Z" fill="white"/>
<path d="M150.341 15.6614V17.1528C151.896 16.031 153.315 15.4702 154.598 15.4702C155.397 15.4702 156.056 15.6614 156.574 16.0438C157.101 16.4177 157.445 16.8808 157.607 17.4332C157.768 17.977 157.849 18.7758 157.849 19.8296V25.846H159.927V28.0002H155.427V19.9315C155.427 18.9968 155.287 18.3892 155.006 18.1088C154.726 17.8198 154.382 17.6754 153.974 17.6754C152.903 17.6754 151.692 18.198 150.341 19.2432V25.846H152.47V28.0002H145.752V25.846H147.919V17.8156H145.752V15.6614H150.341Z" fill="white"/>
<path d="M176.038 15.6614V17.8156H173.82V27.006C173.82 28.2466 173.757 29.1644 173.629 29.7593C173.502 30.3626 173.192 30.9744 172.699 31.5948C172.214 32.2236 171.484 32.7505 170.506 33.1754C169.529 33.6003 168.437 33.8127 167.23 33.8127C165.412 33.8127 163.789 33.2646 162.361 32.1684L163.942 30.4093C165.012 31.2421 166.177 31.6585 167.434 31.6585C168.131 31.6585 168.777 31.5225 169.372 31.2506C169.967 30.9872 170.409 30.6643 170.697 30.2819C170.995 29.8995 171.186 29.5341 171.271 29.1856C171.356 28.8457 171.399 28.2679 171.399 27.4521V26.3304C171.016 26.8148 170.417 27.2736 169.601 27.707C168.785 28.1404 167.893 28.3571 166.924 28.3571C165.157 28.3571 163.717 27.7453 162.603 26.5216C161.49 25.2979 160.934 23.7938 160.934 22.0093C160.934 20.0548 161.545 18.4784 162.769 17.2802C164.001 16.0735 165.425 15.4702 167.039 15.4702C168.671 15.4702 170.124 16.1203 171.399 17.4204V15.6614H176.038ZM163.508 21.9583C163.508 23.2074 163.869 24.2272 164.592 25.0175C165.323 25.8078 166.253 26.2029 167.383 26.2029C168.488 26.2029 169.44 25.8078 170.239 25.0175C171.037 24.2187 171.437 23.1947 171.437 21.9455C171.437 20.6793 171.037 19.6639 170.239 18.8991C169.44 18.1258 168.514 17.7391 167.46 17.7391C166.406 17.7391 165.484 18.1215 164.694 18.8863C163.903 19.6426 163.508 20.6666 163.508 21.9583Z" fill="white"/>
<path d="M190.774 25.846V28.0002H186.223V26.5853C184.804 27.6645 183.444 28.2042 182.144 28.2042C181.32 28.2042 180.636 28.0257 180.092 27.6688C179.556 27.3034 179.2 26.836 179.021 26.2667C178.843 25.6888 178.753 24.7625 178.753 23.4879V17.8156H177.007V15.6614H181.175V23.1819C181.175 24.0912 181.201 24.7031 181.252 25.0175C181.303 25.3319 181.451 25.5911 181.698 25.795C181.944 25.999 182.254 26.1009 182.628 26.1009C183.75 26.1009 184.948 25.5656 186.223 24.4949V17.8156H184.043V15.6614H188.645V25.846H190.774Z" fill="white"/>
<path d="M204.565 25.846V28.0002H200.334V26.4961C199.161 27.6348 197.852 28.2042 196.408 28.2042C195.286 28.2042 194.309 27.8387 193.476 27.1079C192.652 26.3771 192.239 25.4424 192.239 24.3037C192.239 23.1565 192.677 22.2047 193.552 21.4484C194.436 20.6921 195.498 20.3139 196.739 20.3139C197.895 20.3139 199.012 20.6623 200.091 21.3592V20.1355C200.091 19.5066 200.032 19.0223 199.913 18.6824C199.794 18.3424 199.514 18.0365 199.072 17.7646C198.638 17.4927 198.069 17.3567 197.364 17.3567C196.148 17.3567 195.269 17.8411 194.725 18.8098L192.405 18.198C193.433 16.2775 195.209 15.3172 197.733 15.3172C198.66 15.3172 199.458 15.4447 200.13 15.6996C200.809 15.9461 201.315 16.269 201.646 16.6684C201.978 17.0593 202.199 17.4842 202.309 17.9431C202.428 18.4019 202.488 19.1327 202.488 20.1355V25.846H204.565ZM200.091 23.4114C199.046 22.5956 197.988 22.1877 196.917 22.1877C196.246 22.1877 195.685 22.3832 195.235 22.7741C194.785 23.165 194.559 23.6706 194.559 24.2909C194.559 24.8688 194.755 25.3531 195.146 25.744C195.545 26.1349 196.085 26.3304 196.765 26.3304C197.937 26.3304 199.046 25.8375 200.091 24.8518V23.4114Z" fill="white"/>
<path d="M220.932 15.6614V17.8156H218.714V27.006C218.714 28.2466 218.651 29.1644 218.523 29.7593C218.396 30.3626 218.086 30.9744 217.593 31.5948C217.108 32.2236 216.377 32.7505 215.4 33.1754C214.423 33.6003 213.331 33.8127 212.124 33.8127C210.306 33.8127 208.683 33.2646 207.255 32.1684L208.836 30.4093C209.906 31.2421 211.071 31.6585 212.328 31.6585C213.025 31.6585 213.671 31.5225 214.266 31.2506C214.861 30.9872 215.302 30.6643 215.591 30.2819C215.889 29.8995 216.08 29.5341 216.165 29.1856C216.25 28.8457 216.292 28.2679 216.292 27.4521V26.3304C215.91 26.8148 215.311 27.2736 214.495 27.707C213.679 28.1404 212.787 28.3571 211.818 28.3571C210.051 28.3571 208.61 27.7453 207.497 26.5216C206.384 25.2979 205.827 23.7938 205.827 22.0093C205.827 20.0548 206.439 18.4784 207.663 17.2802C208.895 16.0735 210.319 15.4702 211.933 15.4702C213.565 15.4702 215.018 16.1203 216.292 17.4204V15.6614H220.932ZM208.402 21.9583C208.402 23.2074 208.763 24.2272 209.486 25.0175C210.217 25.8078 211.147 26.2029 212.277 26.2029C213.382 26.2029 214.334 25.8078 215.133 25.0175C215.931 24.2187 216.331 23.1947 216.331 21.9455C216.331 20.6793 215.931 19.6639 215.133 18.8991C214.334 18.1258 213.407 17.7391 212.354 17.7391C211.3 17.7391 210.378 18.1215 209.588 18.8863C208.797 19.6426 208.402 20.6666 208.402 21.9583Z" fill="white"/>
<path d="M234.686 22.4426H224.31C224.463 23.5813 224.913 24.5034 225.661 25.2087C226.409 25.914 227.365 26.2667 228.529 26.2667C230.22 26.2667 231.559 25.5868 232.545 24.2272L234.686 25.1704C233.989 26.2497 233.084 27.0527 231.971 27.5796C230.858 28.0979 229.694 28.3571 228.478 28.3571C226.592 28.3571 224.977 27.7708 223.635 26.5981C222.3 25.4169 221.633 23.8278 221.633 21.8308C221.633 19.9358 222.283 18.3764 223.584 17.1528C224.892 15.9291 226.392 15.3172 228.083 15.3172C229.74 15.3172 231.24 15.9163 232.583 17.1145C233.934 18.3042 234.635 20.0802 234.686 22.4426ZM232.188 20.6836C232.018 19.8168 231.567 19.035 230.836 18.3382C230.106 17.6329 229.209 17.2802 228.147 17.2802C227.178 17.2802 226.35 17.5989 225.661 18.2362C224.973 18.8651 224.552 19.6809 224.399 20.6836H232.188Z" fill="white"/>
<path opacity="0.7" d="M110.321 11L123 18.6865L115.679 32L103 24.3135L110.321 11Z" fill="#28C3DD"/>
<path d="M116.209 26.4366L115.414 27.8803L112.709 26.2428L113.264 25.2347C112.094 25.5441 111.048 25.4193 110.124 24.8604C109.407 24.4263 108.917 23.8033 108.655 22.9913C108.397 22.1825 108.479 21.3966 108.899 20.6334C109.323 19.8645 109.954 19.396 110.792 19.2278C111.636 19.0629 112.455 19.2205 113.248 19.7005C113.987 20.1477 114.573 20.8136 115.005 21.6982L115.457 20.8781C115.689 20.4567 115.83 20.109 115.879 19.8352C115.929 19.5613 115.862 19.2478 115.68 18.8946C115.503 18.5446 115.19 18.2332 114.739 17.9603C113.962 17.4901 113.221 17.4744 112.516 17.9132L111.259 16.6055C112.625 15.7162 114.114 15.7599 115.728 16.7364C116.32 17.0949 116.783 17.4894 117.119 17.92C117.462 18.3482 117.666 18.7603 117.731 19.1562C117.798 19.5464 117.783 19.9167 117.684 20.267C117.591 20.6205 117.359 21.1333 116.989 21.8054L114.881 25.6326L116.209 26.4366ZM114.248 23.0737C113.881 22.1225 113.355 21.4397 112.671 21.0254C112.241 20.7656 111.811 20.6796 111.379 20.7673C110.946 20.855 110.616 21.1068 110.387 21.5225C110.174 21.9098 110.12 22.3101 110.225 22.7233C110.336 23.1398 110.609 23.4796 111.044 23.7427C111.793 24.1964 112.684 24.2952 113.716 24.039L114.248 23.0737Z" fill="white"/>
</svg>
