<svg width="900" height="600" viewBox="0 0 900 600" fill="none" xmlns="http://www.w3.org/2000/svg">
<path d="M900 600V0H0V600H900Z" fill="#006233"/>
<path fill-rule="evenodd" clip-rule="evenodd" d="M439.12 320.755C427.372 336.766 435.804 347.187 447.932 347.945C455.891 348.466 472.424 337.666 472.424 325.019L467.876 322.697C470.434 329.187 467.781 331.224 462.381 335.724C451.769 344.487 430.072 345.103 439.12 320.755Z" fill="white" stroke="white" stroke-width="0.005"/>
<path fill-rule="evenodd" clip-rule="evenodd" d="M531.964 362.777C597.955 364.435 618.942 306.409 578.248 256.672L574.221 262.119C576.827 285.33 580.617 308.114 580.996 331.893C573.037 340.419 561.43 337.246 559.157 327.772C559.251 314.935 554.656 304.088 548.829 293.667L545.56 299.161C549.35 307.688 553.472 317.256 554.324 327.772C535.517 348.33 514.72 352.451 522.442 325.451C507.567 349.135 530.069 365.809 555.604 329.382C561.099 354.251 582.275 338.809 583.554 333.456C585.828 317.161 584.643 290.872 580.001 270.125C598.382 299.067 598.998 319.956 589.239 333.93C578.343 349.419 554.751 356.667 532.012 362.777H531.964Z" fill="white" stroke="white" stroke-width="0.012"/>
<path fill-rule="evenodd" clip-rule="evenodd" d="M569.387 297.117C555.317 298.065 548.069 295.412 555.696 285.891C563.276 276.607 570.335 283.996 572.23 296.454C573.983 308.107 547.406 322.98 538.216 322.98C524.335 322.98 517.94 306.686 530.731 292.096C514.245 334.728 566.261 310.002 569.435 297.117H569.387ZM559.628 287.217C557.923 287.123 556.644 289.87 557.497 290.438C560.007 292.002 563.939 291.054 564.318 290.249C565.219 288.544 562.045 287.312 559.628 287.217Z" fill="white" stroke="white" stroke-width="0.012"/>
<path fill-rule="evenodd" clip-rule="evenodd" d="M492.742 317.238C479.193 341.491 492.742 351.533 510.128 348.738C520.266 347.08 533.104 340.496 540.542 331.591C540.684 311.885 540.352 292.417 538.457 273.327C545.232 265.985 537.889 265.985 535.283 258.122C534.099 262.717 531.257 267.69 534.004 271.29C535.994 290.522 537.036 309.991 537.036 329.791C523.345 339.833 513.065 343.527 505.77 343.433C490.61 343.338 487.294 331.685 492.742 317.238Z" fill="white" stroke="white" stroke-width="0.012"/>
<path fill-rule="evenodd" clip-rule="evenodd" d="M520.5 323.652C520.263 305.32 519.978 284.573 518.131 271.736C525.237 264.631 517.799 264.441 515.478 256.483C514.104 260.983 511.12 265.957 513.773 269.604C514.957 289.215 516.046 308.778 516.283 328.389C517.941 327.441 519.789 327.062 520.5 323.652Z" fill="white" stroke="white" stroke-width="0.012"/>
<path fill-rule="evenodd" clip-rule="evenodd" d="M467.826 322.792C466.121 320.802 464.889 318.576 463.468 316.634C463.231 313.886 465.268 311.329 465.552 309.955C467.874 313.176 469.247 315.639 471.095 317.25L467.779 322.792H467.826ZM473.511 318.529C476.922 319.76 481.091 319.76 484.881 319.855C499.756 320.092 515.389 317.865 513.684 336.15C512.262 352.397 497.435 361.729 484.217 361.634C465.315 361.492 449.208 342.544 478.296 307.634C481.138 307.255 484.786 307.965 487.818 308.202C493.733 308.895 499.688 307.284 504.446 303.702C503.735 292.192 503.735 281.344 502.219 270.971C499.566 267.276 502.551 262.397 503.925 257.85C506.246 265.808 513.589 265.997 506.578 273.15C508.283 284.66 508.473 296.36 508.473 303.418C504.92 308.297 502.172 313.46 491.844 315.45C481.28 314.029 476.543 300.623 465.552 305.076C468.584 292.997 496.487 290.202 499.329 299.771C497.435 309.718 471.379 305.739 464.463 337.95C462.331 347.897 473.843 356.992 485.639 356.234C497.198 355.571 509.515 348.276 510.746 336.007C511.694 325.729 495.776 326.96 489.144 327.055C479.433 327.292 473.321 325.918 469.674 323.976L473.511 318.529ZM479.575 301.807C481.328 300.292 487.344 299.297 489.523 301.665C487.888 302.597 486.362 303.709 484.975 304.981C482.701 303.939 481.185 302.85 479.575 301.807Z" fill="white" stroke="white" stroke-width="0.005"/>
<path fill-rule="evenodd" clip-rule="evenodd" d="M494.359 267.75C495.969 271.065 496.633 273.244 496.727 276.371C495.78 280.634 491.706 284.66 487.537 284.802C486.004 284.935 484.467 284.599 483.13 283.837C481.793 283.076 480.719 281.925 480.052 280.539C479.815 280.065 478.726 279.023 477.683 279.497C473.135 286.365 469.725 289.255 465.603 289.207C457.36 289.065 459.824 282.386 452.196 280.35C449.07 280.255 443.859 283.192 441.158 288.876C431.068 315.023 421.83 288.828 425.762 276.655C426.331 288.307 429.41 295.223 432.584 294.986C434.905 294.797 436.942 289.918 439.879 284.85C442.153 280.918 447.554 273.86 453.286 273.86C458.544 274.002 455.228 282.765 465.745 282.671C470.814 282.576 475.457 279.023 480.194 271.965C481.236 271.776 481.473 273.481 481.71 274.05C482.421 276.465 487.063 283.144 493.317 277.034C492.985 275.755 493.127 273.528 491.516 273.102L494.359 267.75Z" fill="white" stroke="white" stroke-width="0.012"/>
<path fill-rule="evenodd" clip-rule="evenodd" d="M527.329 246.079C525.388 247.068 523.181 247.408 521.032 247.05C518.884 246.692 516.907 245.654 515.391 244.09C519.418 243.379 522.497 242.053 523.444 239.163C521.644 235.469 517.286 233.858 511.269 233.811C503.169 234 499 236.984 498.479 241.058C502.269 241.2 505.632 240.253 507.101 243.521C500.468 246.505 492.604 247.548 484.125 247.5C470.197 248.163 468.16 242.432 464.465 237.411C463.861 236.923 463.109 236.656 462.333 236.653C458.069 236.653 454.895 250.295 450.016 250.295C445.184 249.679 446.273 241.484 444.899 236.795C443.715 244.137 446.368 271.563 461.338 241.816C461.812 240.821 462.427 241.106 462.854 241.911C466.881 250.248 475.076 253.137 483.888 253.516C491.278 253.895 500.658 250.958 510.748 245.795C513.449 248.448 515.58 251.479 521.171 252.095C527.755 252.379 534.767 248.069 536.33 242.716C537.135 239.921 537.277 234.521 534.056 234.427C529.603 234.284 526.334 244.184 527.376 253.09C527.593 252.355 527.783 251.612 527.945 250.863L527.329 246.127V246.079ZM508.143 238.974C511.08 237.742 513.922 237.174 516.196 239.921C514.855 240.253 513.576 240.797 512.406 241.532C511.127 240.632 509.422 240.206 508.143 238.974ZM529.792 245.132C530.503 242.195 530.882 239.874 533.535 238.358C534.056 241.437 534.151 243.142 529.745 245.132H529.792ZM547.415 249.679C546.563 247.169 545.71 244.942 545.426 242.242C544.762 236.748 549.974 233.621 554.711 234.048C559.543 234.521 562.764 236.179 567.36 237.6C570.96 238.69 575.887 239.59 580.529 240.774C583.135 241.816 580.529 244.658 579.866 245.037C568.165 249.158 559.922 255.742 552.484 256.027C548.031 256.263 544.099 253.611 540.546 248.211C540.479 238.049 539.878 227.899 538.746 217.8C540.499 216.237 540.83 215.1 541.683 213.821C542.583 223.958 542.915 234.663 543.152 245.463C544.099 247.311 545.284 248.874 547.415 249.679ZM554.853 250.484C548.647 252.095 549.405 247.263 548.837 244.327C548.126 240.869 548.6 236.937 553.432 237.932C559.732 239.448 565.465 241.484 571.007 243.616L554.9 250.484H554.853Z" fill="white" stroke="white" stroke-width="0.005"/>
<path fill-rule="evenodd" clip-rule="evenodd" d="M548.731 255.534L549.584 259.418H550.294L550.01 255.818" fill="white"/>
<path d="M548.731 255.534L549.584 259.418H550.294L550.01 255.818" stroke="white" stroke-width="0.005"/>
<path fill-rule="evenodd" clip-rule="evenodd" d="M449.163 295.568L452.337 292.631L456.032 295.474L452.621 298.221L449.163 295.568ZM457.217 294.621L460.438 291.637L464.086 294.479L460.722 297.226L457.217 294.621ZM434.856 263.879L438.078 260.942L441.725 263.784L438.362 266.531L434.856 263.879ZM436.277 272.595L439.499 269.658L443.147 272.5L439.736 275.247L436.277 272.595ZM494.452 287.231L497.389 285.052L500.089 287.705L497.01 289.695L494.452 287.231ZM455.653 231.384L457.69 229.442L460.106 231.289L457.88 233.089L455.653 231.384ZM460.912 230.768L462.996 228.779L465.365 230.674L463.186 232.426L460.912 230.768ZM572.05 252.842L570.06 254.405L568.165 252.605L570.202 251.184L572.05 252.842Z" fill="white" stroke="white" stroke-width="0.048" stroke-linecap="round" stroke-linejoin="round"/>
<path fill-rule="evenodd" clip-rule="evenodd" d="M478.341 307.472L478.152 310.693L483.837 311.167L488.384 308.088L478.341 307.472Z" fill="white" stroke="white" stroke-width="0.005"/>
<path fill-rule="evenodd" clip-rule="evenodd" d="M526.563 246.73L528.221 246.398L528.031 250.662L526.989 250.993L526.515 246.73H526.563Z" fill="white" stroke="white" stroke-width="0.012"/>
<path d="M513.974 417.383C578.212 417.383 630.513 369.872 630.513 311.419C630.513 279.256 614.737 250.598 589.914 231.177C604.789 247.14 613.837 268.125 613.837 290.956C613.837 341.688 569.164 382.851 513.974 382.851C458.831 382.851 414.158 341.688 414.158 290.956C414.158 268.125 423.159 247.14 438.082 231.177C413.258 250.598 397.53 279.256 397.53 311.419C397.53 369.872 449.783 417.383 513.974 417.383Z" fill="white"/>
<path d="M498.246 476.328C472.522 487.981 440.45 484.854 413.258 468.891C412.121 468.37 411.505 469.128 412.689 472.065C415.626 479.786 417.9 485.896 409.184 497.312C405.394 502.333 409.752 503.138 416.195 502.617C448.883 499.681 481.002 493.049 496.493 487.46L498.246 476.328ZM497.677 490.112C482.271 495.254 466.454 499.073 450.399 501.528C442.487 502.617 442.819 507.117 456.794 508.728C471.101 510.054 489.482 500.77 500.567 492.528L497.677 490.16V490.112Z" fill="white" stroke="#CECECE" stroke-width="0.095"/>
<path d="M513.966 464.647C517.472 464.647 523.915 463.32 530.31 462.515C542.248 460.668 533.532 477.389 513.966 477.389V482.978C533.816 482.978 554.518 463.32 550.16 454.557C544.001 441.768 527.089 452.662 513.966 452.662C500.797 452.662 483.884 441.768 477.773 454.557C473.367 463.32 494.117 482.978 513.966 482.978V477.389C494.401 477.389 485.637 460.668 497.623 462.515C504.018 463.32 510.413 464.647 513.966 464.647Z" fill="white" stroke="#CECECE" stroke-width="0.095"/>
<path d="M529.736 476.328C555.412 487.981 587.531 484.854 614.676 468.891C615.813 468.37 616.429 469.128 615.245 472.065C612.308 479.786 610.034 485.896 618.75 497.312C622.54 502.333 618.182 503.138 611.739 502.617C579.051 499.681 546.932 493.049 531.441 487.46L529.736 476.328ZM530.352 490.112C540.584 493.854 557.828 498.354 577.63 501.528C585.542 502.617 585.21 507.117 571.235 508.728C556.928 510.054 538.547 500.77 527.414 492.528L530.352 490.16V490.112Z" fill="white" stroke="#CECECE" stroke-width="0.095"/>
<path d="M514.865 487.468C515.434 492.015 516.287 501.821 523.014 497.557C532.062 492.015 534.146 487.752 534.146 479.794C534.146 474.726 527.419 467.289 513.965 467.289C500.559 467.289 493.832 474.726 493.832 479.794C493.832 487.752 495.869 492.015 504.917 497.557C511.644 501.821 512.213 492.015 513.113 487.468C513.397 485.905 514.865 486.426 514.865 487.468Z" fill="white" stroke="#CECECE" stroke-width="0.095"/>
<path d="M505.535 147.282C501.745 127.624 469.957 126.298 464.983 123.124C459.156 119.666 460.009 123.124 462.046 128.429C467.873 142.261 487.77 147.851 496.818 149.414C504.114 150.503 506.435 151.024 505.535 147.282Z" fill="white" stroke="#F4F4F4" stroke-width="0.095"/>
<path d="M515.15 147.773C518.371 127.594 486.821 118.025 483.031 113.525C478.672 108.789 478.057 111.631 480.141 117.268C483.931 129.204 497.669 143.32 505.817 147.015C512.544 150.189 514.581 151.515 515.15 147.773Z" fill="white" stroke="#F4F4F4" stroke-width="0.095"/>
<path d="M541.156 159.486C544.093 135.328 518.416 131.586 511.689 123.912C507.284 119.128 506.999 121.781 508.468 127.37C511.358 139.591 524.243 153.896 532.107 158.444C538.266 161.902 540.871 163.181 541.156 159.486Z" fill="white" stroke="#F4F4F4" stroke-width="0.095"/>
<path d="M533.295 154.165C506.718 138.533 488.053 147.249 480.426 146.444C473.13 145.686 470.809 149.902 483.363 156.296C498.854 164.018 520.456 162.928 528.889 159.991C537.653 156.818 535.047 155.254 533.295 154.165ZM573.278 164.775C565.082 138.723 546.133 142.986 540.59 139.812C535.047 136.639 534.432 137.444 535.616 143.27C537.985 153.644 557.502 165.06 567.119 168.517C570.625 169.56 575.031 171.17 573.278 164.775Z" fill="white" stroke="#F4F4F4" stroke-width="0.095"/>
<path d="M569.436 169.329C546.696 152.561 528.884 165.066 521.873 163.172C516.614 161.893 518.936 165.066 520.973 166.393C535.564 175.677 553.66 180.745 567.683 174.919C573.226 172.787 573.51 172.219 569.436 169.329ZM618.799 186.335C619.083 169.85 581.753 162.935 573.841 152.845C569.199 146.735 565.077 149.908 567.446 159.761C570.952 172.503 596.628 186.572 610.651 189.224C619.083 190.835 618.799 188.182 618.799 186.335Z" fill="white" stroke="#F4F4F4" stroke-width="0.095"/>
<path d="M617.658 189.227C593.971 169.805 574.122 176.2 566.826 174.353C559.531 172.79 556.641 176.721 568.01 184.727C582.033 194.295 603.635 196.142 612.684 194.295C621.685 192.4 619.411 190.553 617.658 189.227ZM659.962 217.648C653.235 189.511 631.917 183.637 626.659 178.332C621.685 173.027 616.426 174.637 620.832 187.379C626.043 202.537 643.287 215.8 652.335 218.974C661.099 222.432 660.531 219.779 659.915 217.648H659.962Z" fill="white" stroke="#F4F4F4" stroke-width="0.095"/>
<path d="M659.673 221.377C642.43 196.13 619.975 196.935 612.963 193.477C606.236 189.735 601.594 192.956 610.595 203.851C621.111 217.114 642.714 224.551 652.662 225.072C662.611 225.593 660.81 223.225 659.673 221.377Z" fill="white" stroke="#F4F4F4" stroke-width="0.095"/>
<path d="M681.838 251.357C691.787 222.699 669.048 212.042 666.679 207.305C664.026 202.52 661.42 202.52 659.952 207.542C653.509 228.005 674.259 247.899 677.48 251.926C680.701 255.62 681.27 253.773 681.838 251.357Z" fill="white" stroke="#F4F4F4" stroke-width="0.095"/>
<path d="M677.15 259.308C669.286 227.192 648.537 229.04 643.894 224.54C638.92 220.04 638.351 223.213 639.204 229.04C641.573 244.719 662.275 255.329 671.608 260.682C674.545 262.245 678.05 264.14 677.15 259.355V259.308ZM697.047 297.061C711.354 266.745 694.394 246.329 689.136 241.782C683.925 237.519 680.703 235.719 682.456 241.782C684.825 251.113 676.629 274.987 689.136 292.561C693.257 298.387 693.873 303.929 697.047 297.061Z" fill="white" stroke="#F4F4F4" stroke-width="0.095"/>
<path d="M689.419 303.183C692.64 284.567 680.986 267.562 668.432 260.93C661.137 256.951 660.853 258.041 660.853 263.583C661.421 280.872 679.234 295.225 684.492 303.183C689.419 310.62 689.135 305.078 689.419 303.183Z" fill="white" stroke="#F4F4F4" stroke-width="0.095"/>
<path d="M686.241 351.497C675.724 316.445 697.611 296.266 704.338 292.287C710.781 288.024 714.855 286.461 711.917 293.092C707.559 302.897 712.202 330.276 695.574 347.566C690.363 353.392 688.278 359.503 686.241 351.497Z" fill="white" stroke="#F4F4F4" stroke-width="0.095"/>
<path d="M688.565 343.831C697.329 313.278 678.332 295.989 672.458 292.579C666.963 289.121 663.457 287.794 666.063 293.336C669.568 301.863 665.778 325.736 680.37 340.61C685.059 345.679 686.812 350.7 688.565 343.831Z" fill="white" stroke="#F4F4F4" stroke-width="0.095"/>
<path d="M677.763 329.404C671.11 335.955 666.667 344.418 665.054 353.614C663.44 362.809 664.737 372.279 668.762 380.704C673.12 388.425 673.689 387.904 677.763 382.314C688.896 366.114 682.169 342.714 682.737 332.388C683.021 322.535 679.516 327.84 677.763 329.451V329.404Z" fill="white" stroke="#F4F4F4" stroke-width="0.095"/>
<path d="M703.772 353.916C703.772 375.137 689.418 392.427 674.259 397.732C665.495 400.669 665.495 399.863 666.679 393.469C670.753 369.595 690.887 360.785 698.182 353.111C705.194 345.674 703.772 351.785 703.772 353.916Z" fill="white" stroke="#F4F4F4" stroke-width="0.095"/>
<path d="M649.436 417.082C675.112 395.861 661.422 380.987 662.558 367.156C663.174 359.719 659.953 361.566 657.016 364.219C640.672 378.856 639.819 404.861 643.277 414.998C644.746 419.498 647.067 418.977 649.436 417.082Z" fill="white" stroke="#F4F4F4" stroke-width="0.095"/>
<path d="M683.879 403.31C675.399 426.662 652.944 441.015 633.948 441.82C622.862 442.341 623.146 441.536 626.936 434.667C641.243 409.657 666.635 406.72 678.052 400.373C688.522 394.546 684.732 400.894 683.879 403.31Z" fill="white" stroke="#F4F4F4" stroke-width="0.095"/>
<path d="M614.099 447.125C647.403 431.967 640.628 406.767 646.787 400.373C651.193 395.873 645.934 396.394 643.281 398.004C623.763 408.331 607.988 424.815 607.656 442.341C607.656 448.973 608.272 449.778 614.099 447.125Z" fill="white" stroke="#F4F4F4" stroke-width="0.095"/>
<path d="M568.578 475.3C610.646 481.363 630.164 452.421 642.481 449.768C648.876 448.442 644.186 446.073 641.012 445.789C612.967 442.852 577.343 454.789 566.541 468.1C562.183 473.405 562.183 474.494 568.578 475.252V475.3Z" fill="white" stroke="#F4F4F4" stroke-width="0.095"/>
<path d="M611.209 429.85C602.73 455.094 571.23 475.792 547.593 477.403C536.462 478.208 536.462 477.166 540.583 470.487C559.53 439.18 592.546 433.876 604.199 425.871C614.146 419.003 612.109 427.482 611.209 429.897V429.85ZM522.488 147.279C526.278 127.624 558.062 126.297 563.035 123.124C568.862 119.667 568.009 123.124 565.972 128.429C560.099 142.259 540.251 147.848 531.204 149.411C523.909 150.5 521.588 151.021 522.441 147.279H522.488Z" fill="white" stroke="#F4F4F4" stroke-width="0.095"/>
<path d="M512.873 147.773C509.652 127.594 541.155 118.025 544.945 113.525C549.351 108.789 549.919 111.631 547.882 117.268C544.092 129.204 530.354 143.32 522.206 147.015C515.479 150.189 513.441 151.515 512.873 147.773Z" fill="white" stroke="#F4F4F4" stroke-width="0.095"/>
<path d="M486.869 159.486C483.931 135.328 509.608 131.586 516.335 123.912C520.741 119.128 521.025 121.781 519.556 127.37C516.619 139.591 503.781 153.896 495.87 158.444C489.758 161.902 487.153 163.181 486.869 159.486Z" fill="white" stroke="#F4F4F4" stroke-width="0.095"/>
<path d="M494.735 154.165C521.312 138.533 539.977 147.249 547.604 146.444C554.899 145.686 557.221 149.902 544.667 156.296C529.176 164.018 507.573 162.928 499.141 159.991C490.377 156.818 492.982 155.254 494.735 154.165ZM454.752 164.775C462.948 138.723 481.897 142.986 487.44 139.812C492.982 136.639 493.598 137.444 492.414 143.27C490.045 153.644 470.527 165.06 460.911 168.517C457.405 169.56 452.999 171.17 454.752 164.775Z" fill="white" stroke="#F4F4F4" stroke-width="0.095"/>
<path d="M458.546 169.329C481.285 152.561 499.098 165.066 506.109 163.172C511.367 161.893 509.046 165.066 507.009 166.393C492.371 175.677 474.321 180.745 460.299 174.919C454.756 172.787 454.425 172.219 458.546 169.329ZM409.23 186.335C408.899 169.85 446.276 162.935 454.188 152.845C458.83 146.735 462.952 149.908 460.583 159.761C457.078 172.503 431.401 186.572 417.379 189.224C408.899 190.835 409.23 188.182 409.23 186.335Z" fill="white" stroke="#F4F4F4" stroke-width="0.095"/>
<path d="M410.372 189.227C434.011 169.805 453.861 176.2 461.156 174.353C468.452 172.79 471.389 176.721 459.972 184.727C445.996 194.295 424.394 196.142 415.346 194.295C406.25 192.4 408.619 190.553 410.372 189.227ZM368.067 217.648C374.747 189.511 396.018 183.637 401.323 178.332C406.298 173.027 411.509 174.637 407.15 187.379C401.939 202.537 384.695 215.8 375.6 218.974C366.883 222.432 367.451 219.779 368.02 217.648H368.067Z" fill="white" stroke="#F4F4F4" stroke-width="0.095"/>
<path d="M368.352 221.377C385.549 196.13 408.051 196.935 415.062 193.477C421.742 189.735 426.432 192.956 417.384 203.851C406.867 217.114 385.264 224.551 375.316 225.072C365.415 225.593 367.168 223.225 368.352 221.377Z" fill="white" stroke="#F4F4F4" stroke-width="0.095"/>
<path d="M346.136 251.357C336.187 222.699 358.974 212.042 361.295 207.305C363.948 202.52 366.554 202.52 368.022 207.542C374.465 228.005 353.716 247.899 350.494 251.926C347.32 255.62 346.704 253.773 346.136 251.357Z" fill="white" stroke="#F4F4F4" stroke-width="0.095"/>
<path d="M350.828 259.308C358.692 227.192 379.442 229.04 384.084 224.54C389.059 220.04 389.627 223.213 388.774 229.04C386.406 244.719 365.703 255.329 356.371 260.682C353.434 262.245 349.928 264.14 350.828 259.355V259.308ZM330.979 297.061C316.672 266.745 333.584 246.329 338.843 241.782C344.101 237.519 347.37 235.719 345.57 241.782C343.201 251.113 351.397 274.987 338.843 292.561C334.769 298.387 334.2 303.929 330.979 297.061Z" fill="white" stroke="#F4F4F4" stroke-width="0.095"/>
<path d="M338.557 303.183C335.336 284.567 347.037 267.562 359.591 260.93C366.886 256.951 367.17 258.041 367.17 263.583C366.602 280.872 348.79 295.225 343.484 303.183C338.557 310.62 338.841 305.078 338.557 303.183Z" fill="white" stroke="#F4F4F4" stroke-width="0.095"/>
<path d="M341.782 351.497C352.299 316.445 330.412 296.266 323.685 292.287C317.242 288.024 313.168 286.461 316.105 293.092C320.464 302.897 315.774 330.276 332.449 347.566C337.66 353.392 339.46 359.503 341.782 351.497Z" fill="white" stroke="#F4F4F4" stroke-width="0.095"/>
<path d="M339.456 343.831C330.692 313.278 349.642 295.989 355.469 292.579C361.059 289.121 364.564 287.794 361.911 293.336C358.406 301.863 362.196 325.736 347.605 340.61C342.915 345.679 341.209 350.7 339.456 343.831Z" fill="white" stroke="#F4F4F4" stroke-width="0.095"/>
<path d="M350.258 329.404C356.911 335.955 361.354 344.418 362.967 353.614C364.581 362.809 363.285 372.279 359.259 380.704C354.901 388.425 354.332 387.904 350.258 382.314C339.173 366.114 345.853 342.714 345.284 332.388C345 322.535 348.506 327.84 350.258 329.451V329.404Z" fill="white" stroke="#F4F4F4" stroke-width="0.095"/>
<path d="M324.253 353.916C324.253 375.137 338.56 392.427 353.719 397.732C362.483 400.669 362.483 399.863 361.299 393.469C357.225 369.595 337.091 360.785 329.795 353.111C322.784 345.674 324.253 351.785 324.253 353.916Z" fill="white" stroke="#F4F4F4" stroke-width="0.095"/>
<path d="M378.49 417.082C352.861 395.861 366.552 380.987 365.415 367.156C364.799 359.719 368.021 361.566 370.958 364.219C387.302 378.856 388.154 404.861 384.696 414.998C383.228 419.498 380.906 418.977 378.538 417.082H378.49Z" fill="white" stroke="#F4F4F4" stroke-width="0.095"/>
<path d="M344.147 403.31C352.579 426.662 375.082 441.015 394.031 441.82C405.117 442.341 404.832 441.536 401.042 434.667C386.736 409.657 361.344 406.72 349.974 400.373C339.457 394.546 343.247 400.894 344.147 403.31Z" fill="white" stroke="#F4F4F4" stroke-width="0.095"/>
<path d="M413.876 447.125C380.572 431.967 387.347 406.767 381.188 400.373C376.783 395.873 382.041 396.394 384.694 398.004C404.212 408.331 419.987 424.815 420.271 442.341C420.271 448.973 419.703 449.778 413.876 447.125Z" fill="white" stroke="#F4F4F4" stroke-width="0.095"/>
<path d="M459.449 475.3C417.381 481.363 397.863 452.421 385.546 449.768C379.151 448.442 383.793 446.073 387.015 445.789C415.06 442.852 450.685 454.789 461.486 468.1C465.844 473.405 465.844 474.494 459.449 475.252V475.3Z" fill="white" stroke="#F4F4F4" stroke-width="0.095"/>
<path d="M416.809 429.838C425.242 455.085 456.792 475.785 480.432 477.396C491.517 478.201 491.517 477.159 487.443 470.48C468.494 439.169 435.474 433.864 423.821 425.859C413.872 418.991 415.909 427.469 416.809 429.885V429.838Z" fill="white" stroke="#F4F4F4" stroke-width="0.095"/>
<path d="M563.273 171.711C557.731 168.016 537.315 170.148 533.526 167.732C540.82 173.321 557.162 169.342 563.273 171.711ZM612.631 181.278C608.226 174.126 582.268 169.342 578.478 162.948C585.205 175.168 605.336 173.558 612.583 181.278H612.631ZM608.841 189.519C599.226 180.994 576.726 184.451 569.999 179.431C585.773 192.456 594.536 182.32 608.841 189.519ZM552.52 151.818C558.678 154.707 566.257 157.644 570.047 164.559C565.641 159.254 557.731 157.123 551.336 152.576C551.62 152.576 552.236 152.102 552.52 151.818ZM648.252 206.523C644.462 198.566 631.01 189.756 629.873 186.867C633.662 197.192 644.747 199.608 648.252 206.523ZM651.71 220.59C640.057 203.87 621.678 205.718 614.383 199.323C619.926 205.481 640.91 209.412 651.71 220.59ZM678.899 246.355C679.752 228.547 665.162 221.916 664.594 211.78C664.31 223.763 679.468 239.961 678.899 246.355ZM671.605 255.923C668.668 240.482 648.82 239.44 645.315 230.394C645.315 238.919 668.668 247.682 671.605 255.923ZM687.947 247.161C698.462 258.812 691.168 276.621 695.526 289.646C690.315 280.078 692.92 256.16 687.947 247.161ZM670.752 297.082C686.478 312.475 680.083 329.762 686.478 337.198C678.615 326.779 679.799 306.649 670.752 297.082ZM703.436 299.213C689.983 312.759 698.178 333.173 691.12 342.787C699.031 334.499 697.894 309.301 703.436 299.213ZM686.478 299.213C684.726 283.536 668.668 275.294 667.247 266.816C665.494 275.342 682.689 288.604 686.478 299.213ZM678.331 336.63C680.936 347.524 671.273 370.921 674.21 378.073C667.815 365.617 679.752 341.982 678.283 336.63H678.331ZM699.031 361.638C692.589 381.01 679.752 379.636 675.678 391.335C678.615 380.204 695.573 370.116 699.031 361.591V361.638ZM657.299 370.637C648.82 383.662 655.878 398.534 648.82 407.817C658.768 398.534 653.51 381.294 657.299 370.637ZM677.715 406.207C667.531 423.495 646.452 421.884 638.02 434.388C646.499 418.711 672.457 416.059 677.715 406.207ZM640.626 404.123C622.531 415.49 628.073 427.473 614.383 440.214C631.578 427.473 630.11 413.406 640.626 404.123ZM632.194 450.302C614.668 449.829 589.562 470.526 574.405 468.916C589.562 471.805 617.557 453.239 632.194 450.302ZM603.868 431.736C602.683 447.934 557.162 458.259 552.236 469.153C557.731 454.849 597.71 444.192 603.868 431.736ZM500.794 132.92C494.968 128.42 488.005 124.726 485.92 120.179C487.389 126.052 493.215 130.268 499.089 134.293C499.657 134.009 500.226 133.204 500.794 132.92ZM490.894 137.704C481.894 133.725 471.378 134.009 466.689 128.42C469.626 134.009 479.526 136.141 488.005 139.03C488.915 138.481 489.884 138.036 490.894 137.704ZM464.652 171.711C470.194 168.016 490.61 170.148 494.399 167.732C487.105 173.321 470.715 169.342 464.652 171.711ZM415.294 181.278C419.652 174.126 445.61 169.342 449.447 162.948C442.72 175.168 422.589 173.558 415.294 181.278ZM419.131 189.519C428.747 180.994 451.199 184.451 457.973 179.431C442.152 192.456 433.436 182.32 419.131 189.519ZM457.926 164.559C463.468 153.902 479.241 152.576 483.315 146.229C477.157 155.796 463.752 157.359 457.926 164.559ZM502.878 155.228C518.936 148.36 534.662 154.186 542.289 150.965C532.91 155.512 510.741 153.381 502.878 155.228ZM379.673 206.523C383.462 198.566 396.915 189.756 398.052 186.867C394.262 197.192 383.178 199.608 379.673 206.523ZM376.168 220.59C387.868 203.87 406.247 205.718 413.589 199.323C407.999 205.481 386.968 209.412 376.168 220.59ZM349.026 246.355C348.126 228.547 362.762 221.916 363.331 211.78C363.615 223.763 348.457 239.961 349.026 246.355ZM356.32 255.923C359.257 240.482 379.105 239.44 382.61 230.394C382.61 238.919 359.257 247.682 356.32 255.923ZM339.978 247.161C329.462 258.812 336.757 276.621 332.399 289.646C337.61 280.078 335.005 256.16 339.978 247.161ZM357.173 297.082C341.399 312.475 347.841 329.762 341.399 337.198C349.31 326.779 348.126 306.649 357.173 297.082ZM324.489 299.213C337.941 312.759 329.747 333.173 336.805 342.787C328.894 334.499 330.078 309.301 324.489 299.213ZM341.399 299.213C343.152 283.536 359.21 275.294 360.678 266.816C362.431 275.342 345.236 288.604 341.399 299.213ZM349.594 336.63C346.989 347.524 356.652 370.921 353.715 378.073C360.157 365.617 348.173 341.982 349.641 336.63H349.594ZM328.847 361.638C335.289 381.01 348.126 379.636 352.199 391.335C349.31 380.204 332.352 370.116 328.847 361.591V361.638ZM370.626 370.637C379.057 383.662 372.047 398.534 379.057 407.817C369.11 398.534 374.415 381.294 370.626 370.637ZM350.162 406.207C360.394 423.495 381.426 421.884 389.905 434.388C381.378 418.711 355.42 416.059 350.162 406.207ZM387.299 404.123C405.394 415.49 399.852 427.473 413.541 440.214C396.347 427.473 397.815 413.406 387.299 404.123ZM395.731 450.302C413.257 449.829 438.362 470.526 453.52 468.916C438.362 471.805 410.368 453.239 395.731 450.302ZM424.057 431.736C425.241 447.934 470.762 458.259 475.689 469.153C470.194 454.849 430.215 444.192 424.057 431.736ZM490.278 155.796C493.783 141.445 511.31 138.746 513.631 130.268C512.778 139.314 492.031 149.402 490.278 155.796ZM542.005 120.179C539.352 131.073 520.405 137.23 517.752 145.424C518.652 134.294 538.168 127.899 542.005 120.179ZM527.083 145.945C536.131 132.683 554.841 136.141 561.236 128.42C556.594 137.419 533.526 137.704 527.131 145.945H527.083Z" fill="#006233"/>
<path d="M650.668 310.1C650.668 379.061 589.231 434.95 513.441 434.95C437.652 434.95 376.168 379.061 376.168 310.1C376.168 241.091 437.604 185.203 513.441 185.203C589.231 185.203 650.668 241.091 650.668 310.1V310.1Z" stroke="#F7C608" stroke-width="0.096" stroke-linecap="round" stroke-linejoin="round"/>
<path d="M486.492 435.028L486.018 436.544C485.686 437.586 484.597 438.107 483.365 438.06C480.57 437.302 476.875 436.639 473.511 435.691L476.638 426.028C480.286 426.976 483.981 427.734 486.586 428.113C487.723 428.444 488.292 429.439 488.008 430.481L487.534 431.712L486.492 435.028ZM463.942 425.697L464.416 424.134C464.795 423.139 465.837 422.57 466.974 422.902C469.721 423.897 472.99 425.034 476.638 426.028L473.511 435.691C470.237 434.874 466.998 433.926 463.8 432.849C462.758 432.281 462.473 430.291 462.805 429.249" fill="#F7C608"/>
<path d="M484.595 434.185L484.216 435.275C483.979 436.033 483.079 436.364 482.084 436.317C479.763 435.701 476.684 435.038 473.889 434.28L476.115 427.364C479.147 428.169 482.274 428.785 484.406 429.212C485.353 429.448 485.827 430.159 485.637 430.917L485.306 431.864L484.548 434.233L484.595 434.185ZM465.646 426.796L466.025 425.659C466.262 424.948 467.162 424.569 468.062 424.854C470.336 425.659 473.083 426.559 476.115 427.364L473.889 434.28C471.094 433.569 468.299 432.812 465.835 431.912C464.888 431.533 464.651 430.017 464.888 429.306" fill="#006233"/>
<path d="M448.975 422.914L448.027 424.288C447.364 425.141 446.132 425.425 445.043 425.046C442.579 423.625 439.216 421.967 436.278 420.262L442.295 411.735C445.469 413.63 448.832 415.288 451.201 416.33C452.149 416.899 452.433 418.035 451.817 418.935L451.012 420.025L448.975 422.914ZM430.215 408.23L431.162 406.809C431.484 406.379 431.959 406.09 432.488 406.002C433.018 405.914 433.561 406.033 434.004 406.335C436.278 407.946 439.073 409.888 442.295 411.783L436.278 420.262C433.395 418.628 430.582 416.873 427.846 415.004C426.993 414.199 427.372 412.209 427.988 411.309" fill="#F7C608"/>
<path d="M447.364 421.634L446.701 422.582C446.227 423.245 445.28 423.34 444.332 423.055C442.342 421.824 439.595 420.45 437.084 419.029L441.395 412.919C444.048 414.482 446.795 415.903 448.785 416.803C449.59 417.276 449.875 418.082 449.401 418.745L448.833 419.55L447.411 421.634H447.364ZM431.589 409.697L432.252 408.75C432.726 408.087 433.673 407.945 434.478 408.419C436.373 409.792 438.742 411.355 441.395 412.919L437.131 419.029C434.668 417.608 432.204 416.14 430.025 414.671C429.362 414.055 429.552 412.54 430.025 411.924" fill="#006233"/>
<path d="M416.669 401.697L415.343 402.739C414.49 403.449 413.258 403.355 412.264 402.739C410.369 400.702 407.621 398.286 405.347 395.87L413.732 389.239C416.195 391.892 418.943 394.307 420.838 395.965C421.643 396.723 421.549 397.86 420.649 398.57L419.559 399.423L416.717 401.697H416.669ZM403.263 382.749L404.589 381.707C405.003 381.383 405.522 381.223 406.046 381.258C406.571 381.293 407.064 381.52 407.431 381.897C409.184 384.076 411.221 386.634 413.732 389.239L405.347 395.87C403.078 393.568 400.912 391.166 398.857 388.67C398.336 387.723 399.331 385.876 400.183 385.165" fill="#F7C608"/>
<path d="M415.579 400.036L414.632 400.794C413.969 401.267 413.021 401.173 412.263 400.604L406.531 394.92L412.547 390.183C414.584 392.315 416.811 394.352 418.422 395.773C419.037 396.436 419.037 397.288 418.422 397.809L417.616 398.425L415.579 400.036ZM404.115 384.499L405.062 383.788C405.678 383.267 406.626 383.409 407.289 384.073C408.939 386.182 410.677 388.221 412.5 390.183L406.531 394.92C404.656 392.983 402.855 390.976 401.13 388.904C400.657 388.146 401.272 386.773 401.888 386.252" fill="#006233"/>
<path d="M392.227 373.043L390.664 373.706C389.622 374.18 388.438 373.754 387.68 372.901C386.495 370.485 384.648 367.454 383.179 364.564L393.27 360.348C394.694 363.182 396.276 365.933 398.007 368.59C398.528 369.538 398.102 370.627 397.06 371.054L395.686 371.622L392.275 373.043H392.227ZM385.264 351.443L386.827 350.78C387.917 350.306 389.053 350.733 389.527 351.727C390.475 354.238 391.706 357.222 393.27 360.348L383.179 364.564C381.719 361.77 380.392 358.909 379.2 355.99C378.963 354.901 380.479 353.433 381.568 352.959" fill="#F7C608"/>
<path d="M391.705 371.193L390.521 371.667C389.763 371.951 388.91 371.619 388.342 370.861C387.299 368.872 385.831 366.314 384.599 363.898L391.8 360.914C393.126 363.519 394.642 366.077 395.732 367.783C396.111 368.588 395.874 369.44 395.116 369.772L394.169 370.151L391.705 371.193ZM385.499 353.335L386.636 352.861C387.394 352.577 388.247 352.909 388.673 353.714C389.479 355.798 390.521 358.309 391.8 360.914L384.599 363.898C383.415 361.53 382.183 359.114 381.283 356.793C381.046 355.94 382.041 354.756 382.846 354.425" fill="#006233"/>
<path d="M377.732 339.318L375.979 339.555C375.434 339.615 374.884 339.494 374.413 339.212C373.943 338.93 373.578 338.501 373.374 337.992C372.947 335.386 372.142 331.976 371.621 328.85L382.612 327.429C383.133 330.792 383.985 334.202 384.649 336.523C384.791 337.565 384.08 338.465 382.896 338.607L381.475 338.797L377.685 339.271L377.732 339.318ZM377.685 316.771L379.39 316.534C380.575 316.392 381.569 317.055 381.759 318.097C381.854 320.797 382.043 323.971 382.612 327.381L371.621 328.802C371.095 325.759 370.716 322.692 370.484 319.613C370.579 318.523 372.474 317.434 373.658 317.292" fill="#F7C608"/>
<path d="M377.731 337.383L376.499 337.525C375.646 337.667 374.936 337.051 374.604 336.246C374.272 334.02 373.609 331.225 373.183 328.62L381.047 327.578C381.521 330.42 382.136 333.262 382.658 335.157C382.8 336.057 382.279 336.767 381.473 336.909L380.431 337.004L377.731 337.383ZM377.304 318.672L378.536 318.53C379.389 318.388 380.099 319.004 380.242 319.857C380.384 322.083 380.62 324.735 381.047 327.578L373.183 328.62C372.756 325.967 372.378 323.362 372.188 320.899C372.235 319.999 373.609 319.193 374.415 319.051" fill="#006233"/>
<path d="M374.227 303.185L372.474 302.995C371.944 302.911 371.459 302.649 371.098 302.253C370.737 301.858 370.52 301.351 370.484 300.816C370.863 298.211 371.147 294.753 371.621 291.579L382.612 293C382.148 296.076 381.864 299.176 381.759 302.285C381.569 303.374 380.575 304.037 379.39 303.895L377.969 303.706L374.227 303.232V303.185ZM381.19 281.585L382.896 281.774C384.08 281.964 384.791 282.864 384.649 283.906C383.938 286.511 383.133 289.59 382.612 293.048L371.621 291.627C372.095 288.453 372.616 285.279 373.374 282.437C373.848 281.395 375.979 280.874 377.164 281.016" fill="#F7C608"/>
<path d="M374.841 301.339L373.609 301.197C372.757 301.103 372.283 300.345 372.188 299.445C372.567 297.266 372.804 294.376 373.183 291.771L381.047 292.813C380.573 295.655 380.384 298.497 380.242 300.487C380.099 301.387 379.389 301.955 378.583 301.861L377.541 301.718L374.841 301.339ZM380.242 283.339L381.473 283.482C382.326 283.576 382.8 284.334 382.658 285.187C382.136 287.366 381.521 289.924 381.047 292.766L373.183 291.771C373.657 289.166 374.036 286.561 374.604 284.145C374.936 283.292 376.499 282.818 377.352 282.961" fill="#006233"/>
<path d="M382.041 267.694L380.478 267.031C379.388 266.557 378.962 265.515 379.199 264.426C380.383 262.057 381.71 258.741 383.178 255.899L393.269 260.068C391.658 263.194 390.379 266.463 389.526 268.736C389.053 269.684 387.916 270.11 386.826 269.684L385.5 269.115L382.041 267.694ZM395.401 248.699L397.011 249.363C398.054 249.836 398.527 250.831 398.006 251.826C396.283 254.488 394.702 257.239 393.269 260.068L383.178 255.852C384.599 253.01 386.068 250.073 387.679 247.515C388.437 246.663 390.663 246.71 391.706 247.136" fill="#F7C608"/>
<path d="M383.227 266.103L382.09 265.63C381.332 265.298 381.048 264.445 381.284 263.593C382.279 261.556 383.416 258.856 384.601 256.487L391.849 259.472C390.677 261.82 389.618 264.223 388.675 266.672C388.296 267.477 387.443 267.809 386.638 267.524L385.69 267.098L383.227 266.103ZM393.981 250.14L395.118 250.614C395.875 250.945 396.16 251.798 395.733 252.603C394.549 254.498 393.175 256.866 391.849 259.472L384.601 256.487C385.832 254.072 387.017 251.656 388.343 249.524C388.912 248.766 390.57 248.719 391.328 249.051" fill="#006233"/>
<path d="M400.563 235.604L399.236 234.562C398.336 233.852 398.289 232.715 398.763 231.72C400.705 229.731 402.979 226.983 405.253 224.52L413.638 231.152C411.174 233.757 408.9 236.552 407.385 238.541C407.018 238.918 406.524 239.145 406 239.18C405.475 239.215 404.956 239.055 404.542 238.731L403.405 237.831L400.563 235.604ZM419.228 220.778L420.554 221.82C421.502 222.531 421.502 223.667 420.791 224.473C418.314 226.564 415.942 228.777 413.685 231.104L405.253 224.52C407.574 222.152 409.848 219.736 412.169 217.699C413.164 217.036 415.296 217.699 416.149 218.362" fill="#F7C608"/>
<path d="M402.173 234.325L401.226 233.614C400.562 233.093 400.562 232.193 401.084 231.435C402.647 229.777 404.589 227.456 406.484 225.467L412.453 230.204C410.626 232.145 408.887 234.169 407.242 236.267C406.579 236.977 405.631 237.072 405.015 236.598L404.21 235.983L402.173 234.325ZM417.427 221.82L418.375 222.577C418.991 223.051 418.991 223.904 418.375 224.614C416.322 226.393 414.347 228.257 412.453 230.204L406.484 225.467C408.379 223.477 410.274 221.441 412.169 219.783C412.974 219.214 414.538 219.546 415.201 220.067" fill="#006233"/>
<path d="M428.225 209.504L427.278 208.177C426.662 207.277 426.946 206.188 427.751 205.383C430.215 203.962 433.247 201.877 436.184 200.172L442.2 208.604C438.979 210.498 435.947 212.583 433.91 214.098C433.452 214.379 432.904 214.477 432.377 214.372C431.85 214.266 431.382 213.966 431.067 213.53L430.309 212.441L428.225 209.504ZM450.775 200.125L451.722 201.451C452.338 202.398 452.054 203.441 451.106 204.056C448.501 205.241 445.374 206.756 442.2 208.604L436.184 200.125C439.121 198.419 442.058 196.667 444.948 195.341C446.085 194.962 447.932 196.098 448.548 196.998" fill="#F7C608"/>
<path d="M430.214 208.73L429.504 207.782C429.03 207.119 429.362 206.314 430.025 205.651C432.109 204.467 434.62 202.809 437.083 201.34L441.347 207.403C438.741 208.967 436.136 210.672 434.43 211.903C433.625 212.377 432.678 212.282 432.251 211.619L431.683 210.814L430.214 208.73ZM448.69 200.63L449.4 201.577C449.874 202.24 449.543 203.045 448.737 203.519C446.605 204.561 444 205.888 441.394 207.403L437.083 201.34C439.547 199.919 441.963 198.498 444.331 197.314C445.279 196.982 446.7 197.74 447.127 198.403" fill="#006233"/>
<path d="M462.851 191.594L462.377 190.078C462.046 189.084 462.614 188.089 463.656 187.521C466.499 186.763 470.052 185.531 473.415 184.678L476.542 194.342C472.894 195.289 469.341 196.521 466.878 197.468C465.788 197.752 464.699 197.231 464.367 196.189L463.893 194.91L462.898 191.594H462.851ZM487.39 188.373L487.864 189.889C488.196 190.931 487.627 191.926 486.49 192.257C483.144 192.799 479.824 193.495 476.542 194.342L473.415 184.631C476.731 183.731 480.095 182.831 483.269 182.263C484.501 182.263 485.922 183.778 486.206 184.821" fill="#F7C608"/>
<path d="M464.984 191.39L464.652 190.301C464.415 189.543 464.936 188.832 465.836 188.406C468.158 187.79 471.095 186.795 473.89 186.037L476.164 192.953C473.445 193.694 470.758 194.548 468.11 195.511C467.163 195.748 466.31 195.416 466.073 194.658L465.789 193.711L464.984 191.343V191.39ZM485.259 188.311L485.638 189.401C485.875 190.158 485.354 190.869 484.407 191.153C482.038 191.579 479.196 192.148 476.164 192.953L473.89 186.037C476.732 185.279 479.48 184.522 482.133 184.001C483.08 183.953 484.217 185.043 484.501 185.8" fill="#006233"/>
<path d="M501.646 183.364V181.753C501.646 180.711 502.498 179.906 503.683 179.622C506.62 179.622 510.41 179.385 513.915 179.385V189.474C510.126 189.474 506.336 189.711 503.683 189.948C502.546 189.948 501.646 189.19 501.646 188.148V183.364ZM526.185 186.537V188.101C526.185 189.19 525.285 189.995 524.148 189.995C520.747 189.665 517.332 189.492 513.915 189.474V179.385C517.421 179.385 520.927 179.385 524.148 179.622C525.285 179.906 526.185 181.753 526.185 182.795" fill="#F7C608"/>
<path d="M503.73 183.676V182.492C503.73 181.734 504.488 181.166 505.436 180.976C507.852 180.976 511.026 180.787 513.963 180.787V188.034C510.789 188.034 507.615 188.223 505.436 188.413C504.488 188.413 503.73 187.845 503.73 187.087V183.676ZM524.101 185.902V187.087C524.101 187.845 523.39 188.413 522.443 188.413C519.606 188.177 516.762 188.05 513.915 188.034V180.787C516.852 180.787 519.742 180.787 522.443 180.976C523.39 181.166 524.148 182.492 524.148 183.25" fill="#006233"/>
<path d="M538.784 185.09L539.258 183.575C539.589 182.58 540.679 182.012 541.863 182.059C544.706 182.769 548.401 183.48 551.812 184.333L548.732 194.043C545.451 193.205 542.131 192.525 538.784 192.006C537.647 191.722 537.031 190.727 537.363 189.685L537.742 188.454L538.784 185.138V185.09ZM561.428 194.28L560.955 195.796C560.623 196.838 559.533 197.359 558.396 197.075C555.224 195.915 551.999 194.904 548.732 194.043L551.764 184.333C555.175 185.185 558.539 186.085 561.523 187.127C562.565 187.696 562.85 189.685 562.518 190.68" fill="#F7C608"/>
<path d="M540.679 185.903L541.01 184.86C541.247 184.103 542.147 183.771 543.142 183.818C545.464 184.434 548.543 185.003 551.338 185.713L549.159 192.676C546.436 191.981 543.686 191.396 540.916 190.924C539.968 190.687 539.447 189.976 539.637 189.218L539.968 188.318L540.679 185.95V185.903ZM559.628 193.197L559.297 194.334C559.06 195.045 558.16 195.424 557.259 195.187C554.609 194.245 551.922 193.408 549.206 192.676L551.338 185.76C554.18 186.471 556.975 187.182 559.486 188.034C560.339 188.508 560.67 189.929 560.433 190.639" fill="#006233"/>
<path d="M576.441 196.941L577.388 195.567C578.004 194.667 579.189 194.43 580.373 194.762C582.836 196.183 586.2 197.794 589.137 199.499L583.215 208.025C580.308 206.377 577.319 204.875 574.262 203.525C573.314 202.957 573.03 201.867 573.646 200.967L574.404 199.83L576.441 196.941ZM595.296 211.53L594.348 212.857C594.042 213.288 593.586 213.589 593.069 213.703C592.553 213.817 592.012 213.735 591.553 213.472C588.864 211.522 586.082 209.704 583.215 208.025L589.137 199.499C592.122 201.204 595.059 202.909 597.664 204.709C598.47 205.467 598.138 207.457 597.522 208.357" fill="#F7C608"/>
<path d="M578.005 198.229L578.668 197.282C579.141 196.619 580.089 196.477 581.036 196.808C583.073 197.993 585.821 199.366 588.285 200.787L584.068 206.898C581.659 205.531 579.194 204.267 576.678 203.108C575.825 202.635 575.541 201.782 576.015 201.119L576.583 200.314L578.005 198.229ZM593.922 210.071L593.259 211.019C592.785 211.682 591.838 211.777 591.032 211.303C588.772 209.741 586.448 208.271 584.068 206.898L588.332 200.74C590.795 202.161 593.259 203.582 595.391 205.05C596.101 205.666 595.959 207.135 595.485 207.798" fill="#006233"/>
<path d="M608.936 217.935L610.215 216.845C611.116 216.182 612.347 216.23 613.342 216.845C615.237 218.835 617.985 221.251 620.306 223.667L612.016 230.298C609.733 227.963 607.33 225.749 604.815 223.667C604.01 222.909 604.104 221.772 604.957 221.061L606.047 220.209L608.889 217.935H608.936ZM622.485 236.74L621.206 237.83C620.789 238.168 620.26 238.336 619.724 238.301C619.188 238.266 618.686 238.03 618.316 237.64C616.611 235.461 614.526 232.903 612.016 230.345L620.306 223.667C622.627 226.035 624.949 228.403 626.844 230.772C627.412 231.767 626.465 233.614 625.564 234.277" fill="#F7C608"/>
<path d="M609.979 219.518L610.927 218.76C611.59 218.286 612.537 218.381 613.295 218.949C614.906 220.607 617.18 222.644 619.075 224.634L613.153 229.37C611.248 227.434 609.257 225.585 607.184 223.828C606.568 223.165 606.521 222.312 607.184 221.791L607.942 221.176L609.979 219.518ZM621.633 234.96L620.686 235.718C620.022 236.191 619.075 236.097 618.459 235.434C616.778 233.337 615.008 231.315 613.153 229.37L619.075 224.634C620.97 226.623 622.96 228.612 624.57 230.555C625.044 231.312 624.428 232.686 623.812 233.207" fill="#006233"/>
<path d="M633.569 246.336L635.179 245.673C636.222 245.199 637.406 245.625 638.164 246.478C639.396 248.846 641.243 251.878 642.759 254.767L632.716 259.031C631.243 256.21 629.614 253.474 627.836 250.836C627.363 249.889 627.742 248.846 628.784 248.373L630.158 247.804L633.569 246.383V246.336ZM640.769 267.936L639.206 268.599C638.726 268.819 638.18 268.849 637.678 268.682C637.177 268.515 636.758 268.163 636.506 267.699C635.4 264.743 634.135 261.849 632.716 259.031L642.759 254.767C644.18 257.657 645.696 260.546 646.786 263.294C647.023 264.383 645.554 265.899 644.512 266.325" fill="#F7C608"/>
<path d="M634.137 248.227L635.274 247.753C636.032 247.422 636.932 247.753 637.501 248.511C638.543 250.501 640.059 253.011 641.29 255.427L634.09 258.459C632.885 256.125 631.573 253.849 630.158 251.638C629.684 250.832 629.968 249.98 630.726 249.648L631.674 249.269L634.137 248.227ZM640.485 265.99L639.396 266.464C638.59 266.795 637.737 266.464 637.311 265.659C636.346 263.211 635.272 260.809 634.09 258.459L641.29 255.427C642.522 257.795 643.754 260.211 644.701 262.532C644.938 263.385 643.896 264.569 643.138 264.901" fill="#006233"/>
<path d="M648.442 279.978L650.147 279.741C650.687 279.677 651.233 279.791 651.703 280.064C652.173 280.338 652.541 280.756 652.753 281.257C653.226 283.909 654.079 287.272 654.648 290.399L643.657 291.962C643.124 288.876 642.412 285.823 641.525 282.82C641.336 281.778 642.094 280.878 643.231 280.736L644.652 280.499L648.442 280.025V279.978ZM648.679 302.525L646.926 302.762C645.789 302.951 644.794 302.288 644.604 301.199C644.458 298.105 644.142 295.021 643.657 291.962L654.6 290.399C655.121 293.572 655.642 296.699 655.879 299.636C655.737 300.725 653.842 301.814 652.705 302.004" fill="#F7C608"/>
<path d="M648.396 281.918L649.627 281.728C650.48 281.633 651.191 282.202 651.522 283.054C651.901 285.233 652.564 288.028 652.991 290.633L645.174 291.77C644.7 288.928 644.037 286.086 643.469 284.191C643.327 283.291 643.848 282.581 644.653 282.439L645.695 282.296L648.396 281.918ZM649.011 300.628L647.732 300.77C646.927 300.912 646.216 300.297 646.074 299.444C645.877 296.873 645.561 294.312 645.127 291.77L652.991 290.681C653.465 293.286 653.938 295.891 654.08 298.354C654.08 299.254 652.707 300.107 651.901 300.249" fill="#006233"/>
<path d="M652.28 316.067L654.032 316.256C654.563 316.329 655.053 316.58 655.423 316.967C655.793 317.354 656.021 317.855 656.069 318.388C655.643 321.041 655.454 324.499 654.98 327.672L643.989 326.299C644.463 322.888 644.7 319.43 644.795 317.014C644.937 315.972 645.932 315.262 647.069 315.404L648.49 315.593L652.28 316.067ZM645.553 337.762L643.8 337.525C642.663 337.383 641.905 336.483 642.047 335.441C642.71 332.835 643.468 329.756 643.989 326.299L654.98 327.672C654.506 330.799 654.032 333.972 653.322 336.814C652.848 337.856 650.716 338.377 649.579 338.235" fill="#F7C608"/>
<path d="M651.616 317.897L652.895 318.039C653.701 318.134 654.222 318.892 654.316 319.792C653.985 321.971 653.748 324.86 653.369 327.466L645.505 326.518C645.931 323.676 646.168 320.787 646.216 318.797C646.358 317.897 647.068 317.376 647.921 317.423L648.963 317.566L651.616 317.897ZM646.405 335.992L645.173 335.85C644.368 335.708 643.847 334.997 643.989 334.097C644.463 331.966 645.079 329.36 645.505 326.518L653.369 327.466C652.99 330.118 652.611 332.723 652.042 335.092C651.711 335.944 650.148 336.418 649.342 336.323" fill="#006233"/>
<path d="M644.795 351.683L646.406 352.299C647.448 352.773 647.922 353.767 647.685 354.857C646.501 357.273 645.221 360.541 643.8 363.478L633.662 359.357C635.226 356.183 636.505 352.915 637.31 350.641C637.784 349.694 638.921 349.267 640.01 349.694L641.337 350.262L644.795 351.683ZM631.625 370.725L630.015 370.062C628.972 369.636 628.499 368.641 628.972 367.646C630.394 365.278 632.146 362.531 633.71 359.357L643.8 363.478C642.379 366.367 640.958 369.304 639.395 371.862C638.637 372.715 636.41 372.667 635.368 372.241" fill="#F7C608"/>
<path d="M643.659 353.288L644.796 353.761C645.554 354.045 645.838 354.898 645.648 355.751C644.654 357.788 643.564 360.488 642.332 362.856L635.084 359.967C636.411 357.314 637.453 354.614 638.211 352.719C638.59 351.914 639.442 351.535 640.2 351.867L641.148 352.245L643.659 353.288ZM633.047 369.298L631.91 368.824C631.152 368.493 630.868 367.688 631.247 366.882C632.629 364.636 633.909 362.328 635.084 359.967L642.332 362.903C641.148 365.272 639.964 367.735 638.685 369.867C638.116 370.624 636.505 370.672 635.7 370.34" fill="#006233"/>
<path d="M626.606 383.876L627.933 384.918C628.833 385.581 628.928 386.718 628.407 387.713C626.512 389.75 624.285 392.544 622.011 394.96L613.531 388.423C615.995 385.771 618.269 382.976 619.69 380.987C620.061 380.584 620.574 380.339 621.12 380.304C621.667 380.268 622.207 380.445 622.627 380.797L623.717 381.65L626.606 383.876ZM608.036 398.797L606.71 397.802C605.809 397.092 605.762 395.955 606.473 395.15C608.604 393.302 611.115 391.029 613.579 388.423L622.011 394.96C619.825 397.366 617.533 399.673 615.142 401.876C614.194 402.492 612.063 401.876 611.163 401.213" fill="#F7C608"/>
<path d="M624.996 385.11L625.943 385.868C626.606 386.342 626.606 387.242 626.133 388.047C624.569 389.705 622.674 392.026 620.779 394.063L614.716 389.326C616.8 387.195 618.695 384.874 619.927 383.216C620.543 382.553 621.49 382.41 622.153 382.932L622.959 383.547L624.996 385.11ZM609.883 397.805L608.936 397.047C608.273 396.574 608.273 395.674 608.936 395.01C610.942 393.198 612.87 391.301 614.716 389.326L620.779 394.063C618.884 396.053 616.99 398.089 615.095 399.795C614.337 400.363 612.726 399.984 612.11 399.51" fill="#006233"/>
<path d="M599.228 410.178L600.175 411.504C600.791 412.404 600.554 413.494 599.702 414.299C597.333 415.72 594.301 417.852 591.364 419.604L585.253 411.173C588.427 409.278 591.459 407.147 593.496 405.631C593.948 405.345 594.492 405.24 595.019 405.336C595.545 405.433 596.016 405.724 596.338 406.152L597.143 407.289L599.228 410.131V410.178ZM576.773 419.747L575.825 418.42C575.162 417.473 575.446 416.431 576.394 415.815C579.419 414.409 582.375 412.86 585.253 411.173L591.364 419.604C588.427 421.357 585.49 423.11 582.647 424.483C581.51 424.862 579.663 423.725 578.999 422.825" fill="#F7C608"/>
<path d="M597.238 410.921L597.902 411.869C598.375 412.532 598.139 413.337 597.428 414L590.417 418.406L586.058 412.342C588.711 410.779 591.269 409.027 592.927 407.795C593.78 407.321 594.68 407.416 595.154 408.079L595.722 408.885L597.238 410.921ZM578.763 419.211L578.1 418.264C577.626 417.6 577.91 416.795 578.715 416.274C580.895 415.232 583.453 413.906 586.058 412.342L590.417 418.406C588.001 419.827 585.537 421.295 583.216 422.479C582.268 422.811 580.847 422.053 580.374 421.437" fill="#006233"/>
<path d="M564.697 428.317L565.218 429.88C565.55 430.875 564.981 431.87 563.939 432.438C561.144 433.196 557.591 434.475 554.275 435.375L551.006 425.712C554.262 424.813 557.472 423.754 560.623 422.538C561.76 422.207 562.85 422.728 563.181 423.77L563.655 425.049L564.697 428.365V428.317ZM540.253 431.775L539.731 430.259C539.4 429.217 539.968 428.222 541.058 427.891C543.948 427.417 547.406 426.754 551.006 425.712L554.275 435.375C550.912 436.322 547.548 437.27 544.374 437.838C543.19 437.886 541.768 436.37 541.437 435.328" fill="#F7C608"/>
<path d="M562.611 428.603L562.99 429.693C563.227 430.403 562.706 431.114 561.853 431.587C559.485 432.203 556.548 433.245 553.8 434.003L551.431 427.087C554.151 426.331 556.837 425.462 559.485 424.482C560.432 424.245 561.285 424.577 561.522 425.335L561.806 426.235L562.611 428.603ZM542.383 431.777L542.004 430.687C541.767 429.977 542.288 429.266 543.188 428.982C545.557 428.508 548.399 427.94 551.431 427.087L553.8 434.003C551.077 434.792 548.328 435.487 545.557 436.087C544.609 436.135 543.472 435.093 543.188 434.335" fill="#006233"/>
<path d="M526.044 436.932V438.543C526.044 439.585 525.192 440.438 524.055 440.674C521.117 440.674 517.327 441.006 513.822 441.053L513.727 430.964C517.517 430.917 521.307 430.632 523.912 430.348C525.097 430.348 525.997 431.106 525.997 432.148V436.932H526.044ZM501.505 433.948V432.385C501.457 431.343 502.31 430.49 503.494 430.49C506.432 430.727 509.937 430.964 513.727 430.964L513.822 441.053C510.41 441.126 506.996 441.063 503.589 440.864C502.452 440.627 501.552 438.732 501.505 437.69" fill="#F7C608"/>
<path d="M523.911 476.662L523.959 477.799C523.959 478.557 523.248 479.125 522.301 479.315C519.837 479.315 516.711 479.552 513.774 479.599L513.726 472.352C516.853 472.352 520.027 472.115 522.206 471.925C523.153 471.925 523.911 472.446 523.911 473.252V476.662ZM503.541 474.578V473.394C503.541 472.636 504.251 472.067 505.199 472.067C507.615 472.257 510.552 472.399 513.726 472.352L513.774 479.599C510.884 479.599 507.947 479.599 505.246 479.457C504.299 479.315 503.588 477.988 503.541 477.231" fill="#006233"/>
</svg>
