<svg width="900" height="600" viewBox="0 0 900 600" fill="none" xmlns="http://www.w3.org/2000/svg">
<path d="M900 0H0V600H900V0Z" fill="#D80027"/>
<path d="M480.757 221.193L506.497 300.48H589.837L522.427 349.482L548.167 428.768L480.712 379.766L413.257 428.768L439.042 349.482L371.587 300.435H454.972L480.712 221.193H480.757ZM643.117 484.88L617.782 466.521L592.492 484.88L602.167 455.182L576.877 436.778H608.152L617.782 407.079L627.457 436.778H658.732L633.442 455.182L643.117 484.88V484.88ZM709.087 394.075H677.812L668.182 423.773L658.507 394.075H627.232L652.522 375.716L642.847 345.972L668.182 364.331L693.472 345.972L683.797 375.671L709.087 394.12V394.075ZM709.087 281.805L683.797 300.21L693.472 329.908L668.182 311.549L642.847 329.953L652.522 300.21L627.232 281.85H658.507L668.182 252.107L677.812 281.805H709.087V281.805ZM643.117 191L633.442 220.744L658.732 239.103H627.457L617.782 268.846L608.152 239.148H576.877L602.167 220.744L592.492 191.045L617.782 209.404L643.117 191V191Z" fill="#FFDA44"/>
</svg>
