<svg width="900" height="600" viewBox="0 0 900 600" fill="none" xmlns="http://www.w3.org/2000/svg">
<path d="M900 0H0V600H900V0Z" fill="#F0F0F0"/>
<path d="M506.25 0H393.75V243.753H0V356.247H393.75V599.955H506.25V356.247H900V243.753H506.25V0Z" fill="#D80027"/>
<path d="M692.235 404.343L900 519.762V404.388H692.19L692.235 404.343ZM547.83 404.343L900 599.948V544.646L647.415 404.343H547.83ZM806.22 599.948L547.83 456.405V599.948H806.22Z" fill="#0052B4"/>
<path d="M547.83 404.343L900 599.948V544.646L647.415 404.343H547.83Z" fill="#F0F0F0"/>
<path d="M547.83 404.343L900 599.948V544.646L647.415 404.343H547.83Z" fill="#D80027"/>
<path d="M158.805 404.343L0 492.538V404.343H158.805V404.343ZM352.17 429.182V599.948H44.82L352.17 429.182V429.182Z" fill="#0052B4"/>
<path d="M252.585 404.343L0 544.646V599.993L352.17 404.343H252.585V404.343Z" fill="#D80027"/>
<path d="M207.81 195.65L0 80.231V195.605H207.81V195.65ZM352.17 195.65L0 0V55.3472L252.585 195.605H352.17V195.65ZM93.78 0L352.17 143.543V0H93.78V0Z" fill="#0052B4"/>
<path d="M352.17 195.65L0 0V55.3472L252.585 195.605H352.17V195.65Z" fill="#F0F0F0"/>
<path d="M352.17 195.65L0 0V55.3472L252.585 195.605H352.17V195.65Z" fill="#D80027"/>
<path d="M741.24 195.65L900 107.455V195.65H741.15H741.24ZM547.83 170.766V0H855.18L547.83 170.766V170.766Z" fill="#0052B4"/>
<path d="M647.415 195.65L900 55.3472V0L547.83 195.65H647.415V195.65Z" fill="#D80027"/>
</svg>
