<svg xmlns="http://www.w3.org/2000/svg" width="100" height="100" viewBox="0 0 100 100">
  <defs>
    <style>
      .cls-1 {
        fill: #1376d7;
        fill-rule: evenodd;
      }
    </style>
  </defs>
  <path id="close.svg" class="cls-1" d="M85.445,85.234A50.257,50.257,0,0,1,50,100,50.869,50.869,0,0,1,14.571,85.458,50.584,50.584,0,0,1-.009,50.115a48.89,48.89,0,0,1,14.58-35.339A49.2,49.2,0,0,1,49.778.012,50.081,50.081,0,0,1,85.225,14.553,49.88,49.88,0,0,1,85.445,85.234ZM77.821,22.159A39.219,39.219,0,0,0,50,10.751,38.637,38.637,0,0,0,22.2,22.384,37.374,37.374,0,0,0,10.761,50.115,39,39,0,0,0,22.2,77.852,40.179,40.179,0,0,0,50,89.263,39.023,39.023,0,0,0,77.821,77.629,38.614,38.614,0,0,0,89.255,49.892,39.965,39.965,0,0,0,77.821,22.159ZM66.8,66.8a2.377,2.377,0,0,1-3.361,0L49.992,53.354,36.547,66.8a2.377,2.377,0,0,1-3.361-3.361L46.631,49.992,33.185,36.547a2.377,2.377,0,0,1,3.361-3.361L49.992,46.631,63.438,33.185A2.377,2.377,0,0,1,66.8,36.547L53.354,49.992,66.8,63.438A2.377,2.377,0,0,1,66.8,66.8Z"/>
</svg>
