<svg xmlns="http://www.w3.org/2000/svg" width="99.969" height="99.969" viewBox="0 0 99.969 99.969">
  <defs>
    <style>
      .cls-1 {
        fill: #1376d7;
        fill-rule: evenodd;
      }
    </style>
  </defs>
  <path id="download.svg" class="cls-1" d="M100.016,74.173v20.7c0,1.694,0,3.453-1.572,3.453-1.583,1.694-3.181,1.694-4.775,1.694H4.8c-1.565,0-3.185,0-3.185-1.694-1.591,0-1.591-1.759-1.591-3.453v-20.7c0-1.727,0-3.449,1.591-5.152,0-1.751,1.62-1.751,3.185-1.751H33.348L41.312,75.9c3.162,1.723,4.779,3.445,7.934,3.445A11.529,11.529,0,0,0,57.165,75.9l9.528-8.626H93.669c1.594,0,3.192,0,4.775,1.751,1.572,1.7,1.572,3.425,1.572,5.152h0ZM76.232,32.8c1.59,0,3.177,1.755,4.742,3.458,0,1.723,0,3.474-1.564,5.168l-26.969,29.3H47.655l-27-29.3c-1.565-1.694-1.565-3.445-1.565-5.168A3.579,3.579,0,0,1,22.274,32.8H38.127V3.5a1.664,1.664,0,0,1,1.62-1.731A1.594,1.594,0,0,1,41.312.03H57.165c1.617,0,1.617,0,3.181,1.743l1.6,1.731V32.8H76.232Zm0,58.6V84.521H69.874c0,1.7-1.59,1.7-1.59,3.453,0,1.723,1.59,1.723,1.59,3.417h6.358Zm14.281,0C92.1,89.7,92.1,89.7,92.1,87.975c0-1.755,0-1.755-1.59-3.453h-4.76c-1.591,1.7-1.591,1.7-1.591,3.453,0,1.723,0,1.723,1.591,3.417h4.76Z" transform="translate(-0.031 -0.031)"/>
</svg>
