<svg xmlns="http://www.w3.org/2000/svg" width="349.781" height="349.75" viewBox="0 0 349.781 349.75">
  <defs>
    <style>
      .cls-1 {
        fill: #1376d7;
        fill-rule: evenodd;
      }
    </style>
  </defs>
  <path id="link.svg" class="cls-1" d="M360.441,350.869l-9.063,9.063c-27.563,27.533-69.008,30.734-92.638,7.127l-58.133-58.134c-18.9-18.927-20.589-49.247-6.387-74.742l26.609,26.609c-0.747,7.809,1.506,15.417,6.985,20.926l58.133,58.134c10.744,10.7,29.573,9.249,42.109-3.242l9.063-9.062c6.05-6.583,9.684-14.433,10.427-21.7a24.605,24.605,0,0,0-7.193-20.4L282.22,227.312c-5.505-5.483-13.125-7.74-20.934-6.991l-26.61-26.61c25.5-14.2,55.83-12.5,74.751,6.394l58.133,58.134C391.16,281.861,387.982,323.314,360.441,350.869ZM144.809,144.3c7.274-7.274,18.237-8.117,24.477-1.877L273.828,246.966c6.247,6.247,5.4,17.209-1.87,24.483s-18.244,8.124-24.491,1.877L142.925,168.784C136.686,162.545,137.528,151.582,144.809,144.3Zm51.35,10.893c0.741-7.817-1.5-15.418-6.984-20.926L131.041,76.134c-10.752-10.706-29.561-9.26-42.117,3.234L79.862,88.43c-12.479,12.541-13.94,31.366-3.226,42.11l58.134,58.134c5.494,5.479,13.106,7.728,20.926,6.984l26.6,26.6c-25.5,14.207-55.823,12.527-74.739-6.374L49.424,157.751C25.813,134.125,29.007,92.672,56.54,65.108L65.6,56.046c27.563-27.548,69.024-30.734,92.65-7.123l58.134,58.134c18.9,18.9,20.582,49.24,6.374,74.739Z" transform="translate(-33.594 -33.125)"/>
</svg>
