<svg width="100" height="100" xmlns="http://www.w3.org/2000/svg">

 <g>
  <title>background</title>
  <rect fill="none" id="canvas_background" height="102" width="102" y="-1" x="-1"/>
 </g>
 <g>
  <title>Layer 1</title>
  <path stroke="null" id="svg_1" fill-rule="evenodd" fill="#1376d7" d="m22.29698,27.791536l0,14.253441l-6.636172,0c-4.888747,0 -8.848635,3.644884 -8.848635,8.145015l0,40.725301c0,4.499907 3.959888,8.144567 8.848635,8.144567l70.786644,0c4.888504,0 8.849122,-3.64466 8.849122,-8.144567l0,-40.725301c0,-4.500131 -3.960618,-8.145015 -8.849122,-8.145015l-6.635685,0l0,-14.253441c0,-14.619879 -12.875478,-26.471188 -28.757394,-26.471188s-28.757394,11.851085 -28.757394,26.471188zm11.060611,14.253441l0,-14.253441c0,-9.000038 7.919045,-16.290255 17.696539,-16.290255c9.777494,0 17.697026,7.290217 17.697026,16.290255l0,14.253441l-35.393566,0zm8.848148,22.398904c0,-4.499907 3.959644,-8.144791 8.848391,-8.144791s8.848148,3.644884 8.848148,8.144791c0,2.871442 -1.615217,5.396616 -4.047782,6.842198c0,0 0.864338,4.806505 1.836293,10.466239c0,1.689426 -1.482036,3.053652 -3.318329,3.053652l-6.636659,0c-1.83605,0 -3.317842,-1.364226 -3.317842,-3.053652l1.836293,-10.466239c-2.432809,-1.445582 -4.048513,-3.970981 -4.048513,-6.842198z" clip-rule="evenodd"/>
 </g>
</svg>