<svg width="24" height="24" viewBox="0 0 24 24" fill="none" xmlns="http://www.w3.org/2000/svg">
<g clip-path="url(#clip0)">
<path d="M18.1332 9.4286H14.2261V0.625267C14.2261 0.279941 13.6768 0 12.999 0H10.8514C10.1738 0 9.62424 0.279941 9.62424 0.625267V9.4286H5.71738C5.32549 9.4286 5.00781 9.67671 5.00781 9.98286C5.00781 9.98286 10.8609 18.5741 11.3931 18.9898C11.9252 19.4056 12.4573 18.9898 12.4573 18.9898L18.8426 9.98286C18.8426 9.67671 18.5249 9.4286 18.1332 9.4286Z" fill="#28C3DD"/>
<path d="M18.9898 23.1111C18.9898 23.6021 18.6425 24 18.2138 24H5.7956C5.36709 24 5.01953 23.6021 5.01953 23.1111V22.2222C5.01953 21.7313 5.36709 21.3333 5.7956 21.3333H18.2137C18.6424 21.3333 18.9898 21.7313 18.9898 22.2222L18.9898 23.1111Z" fill="#28C3DD"/>
</g>
<defs>
<clipPath id="clip0">
<rect width="24" height="24" fill="white"/>
</clipPath>
</defs>
</svg>
