<svg xmlns="http://www.w3.org/2000/svg" width="16" height="13" fill="none" viewBox="0 0 16 13">
    <path fill="#28C3DD" d="M0 .615C0 .275.276 0 .615 0h8.616c.34 0 .615.276.615.615v1.231c0 .34-.275.616-.615.616H.615A.615.615 0 0 1 0 1.846V.616zM0 5.538c0-.34.276-.615.615-.615h14.77c.34 0 .615.276.615.615V6.77c0 .34-.275.616-.615.616H.615A.615.615 0 0 1 0 6.769V5.54zM0 10.461c0-.34.276-.615.615-.615H13.54c.34 0 .615.276.615.615v1.231c0 .34-.276.616-.615.616H.615A.615.615 0 0 1 0 11.692v-1.23z"/>
</svg>
