<svg xmlns="http://www.w3.org/2000/svg" width="16" height="16" fill="none" viewBox="0 0 16 16">
    <path fill="#001B36" fill-rule="evenodd" d="M14.857 4.571h-2.286v-.16A4.397 4.397 0 0 0 8.161 0h-.286C5.429 0 3.429 1.964 3.429 4.41v.161H1.143L0 16h16L14.857 4.571zm-10.286-.16c0-1.811 1.493-3.268 3.304-3.268H8.16a3.26 3.26 0 0 1 3.268 3.268v.16H4.57v-.16zM1.28 14.857l.889-9.143h1.26v1.297A1.142 1.142 0 1 0 5.143 8a1.14 1.14 0 0 0-.57-.99V5.714h6.856v1.297a1.142 1.142 0 1 0 1.714.99 1.14 1.14 0 0 0-.57-.99V5.714h1.264l.889 9.143H1.279z" clip-rule="evenodd"/>
    <mask id="a" width="16" height="16" x="0" y="0" maskUnits="userSpaceOnUse">
        <path fill="#fff" fill-rule="evenodd" d="M14.857 4.571h-2.286v-.16A4.397 4.397 0 0 0 8.161 0h-.286C5.429 0 3.429 1.964 3.429 4.41v.161H1.143L0 16h16L14.857 4.571zm-10.286-.16c0-1.811 1.493-3.268 3.304-3.268H8.16a3.26 3.26 0 0 1 3.268 3.268v.16H4.57v-.16z" clip-rule="evenodd"/>
    </mask>
    <g mask="url(#a)">
        <path fill="#001B36" d="M0 0h16v16H0V0z"/>
    </g>
</svg>
