<svg xmlns="http://www.w3.org/2000/svg" width="24" height="24" fill="none" viewBox="0 0 24 24">
    <g fill="#fff" opacity=".8">
        <path d="M14.122 10.458a2.622 2.622 0 0 0-2.131-1.104c-.876 0-1.656.438-2.132 1.104-.305.438-.495.971-.495 1.542a2.632 2.632 0 0 0 2.627 2.627A2.632 2.632 0 0 0 14.617 12c0-.571-.19-1.104-.495-1.542z"/>
        <path d="M17.201 10.477c-.654 0-1.145.728-1.121 1.382l.003.14a4.098 4.098 0 0 1-4.092 4.093 4.086 4.086 0 0 1-4.09-4.234c.023-.653-.467-1.38-1.121-1.38a.88.88 0 0 0-.88.879v5.23c0 .8.704 1.503 1.504 1.503h9.173c.8 0 1.504-.704 1.504-1.503v-5.23a.88.88 0 0 0-.88-.88zM17.396 6.252h-1.208a1 1 0 0 0-1 1v.532a1 1 0 0 0 1 1h.512a1 1 0 0 0 1-1V6.538a.287.287 0 0 0-.304-.286z"/>
        <path d="M17.967.01H.999a1 1 0 0 0-.999 1v21.98a1 1 0 0 0 1 1h22a1 1 0 0 0 1-.998V1.01a1 1 0 0 0-.999-1h-5.034zm1.446 10.449v6.128c0 1.599-1.237 2.836-2.836 2.836H7.404c-1.6 0-2.836-1.237-2.836-2.836V7.413c0-1.598 1.237-2.835 2.836-2.835h9.173c1.6 0 2.836 1.237 2.836 2.835v3.046z"/>
    </g>
</svg>
