<svg xmlns="http://www.w3.org/2000/svg" width="20" height="20" fill="none" viewBox="0 0 20 20">
    <g fill="#095AB3" clip-path="url(#a)">
        <path d="M3.265 6.533H.653A.654.654 0 0 0 0 7.186V18.94c0 .36.293.652.653.652h2.612c.36 0 .653-.292.653-.652V7.186a.654.654 0 0 0-.653-.653zM18.37 6.533c-.104-.017-5.028 0-5.028 0l.688-1.876c.474-1.296.167-3.274-1.15-3.978-.429-.229-1.028-.344-1.51-.222-.277.07-.52.253-.666.498-.167.283-.15.613-.209.926-.15.795-.526 1.55-1.107 2.117-1.014.989-4.163 3.841-4.163 3.841v10.448h10.882c1.469 0 2.431-1.64 1.707-2.92a1.977 1.977 0 0 0 .653-2.612 1.977 1.977 0 0 0 .653-2.612c1.49-.954.991-3.315-.75-3.61z"/>
    </g>
    <defs>
        <clipPath id="a">
            <path fill="#fff" d="M0 0h20v20H0z"/>
        </clipPath>
    </defs>
</svg>
