<svg xmlns="http://www.w3.org/2000/svg" width="24" height="24" fill="none" viewBox="0 0 24 24">
    <path fill="#fff" d="M1 0a1 1 0 0 0-1 1v22a1 1 0 0 0 1 1h22a1 1 0 0 0 1-1V1a1 1 0 0 0-1-1H1zm7.057 19.064H6.241a1 1 0 0 1-1-1v-7.83a1 1 0 0 1 1-1h.816a1 1 0 0 1 1 1v8.83zM6.677 8.113c-.944 0-1.713-.713-1.713-1.588 0-.876.769-1.589 1.713-1.589.945 0 1.713.713 1.713 1.588 0 .876-.768 1.589-1.713 1.589zm12.359 9.95a1 1 0 0 1-1 1h-.885a1 1 0 0 1-1-1v-4.83c0-.011.042-.937-.482-1.49-.262-.275-.621-.414-1.07-.414-.983 0-1.542.616-1.83 1.1a.85.85 0 0 0-.11.436v5.199a1 1 0 0 1-1 1h-.816a1 1 0 0 1-1-1v-7.83a1 1 0 0 1 1-1h1.548c.148 0 .268.12.268.268 0 .225.265.353.453.229.802-.531 1.672-.81 2.547-.81 2.671 0 3.377 2.087 3.377 3.19v5.953z" opacity=".8"/>
</svg>
