<svg xmlns="http://www.w3.org/2000/svg" width="24" height="24" fill="none" viewBox="0 0 24 24">
    <path fill="#fff" fill-rule="evenodd" d="M1 0a1 1 0 0 0-1 1v22a1 1 0 0 0 1 1h22a1 1 0 0 0 1-1V1a1 1 0 0 0-1-1H1zm17.616 9.052c0-.147-.003-.294-.01-.44a6.921 6.921 0 0 0 1.702-1.765 6.817 6.817 0 0 1-1.958.537 3.418 3.418 0 0 0 1.498-1.886 6.822 6.822 0 0 1-2.164.827 3.409 3.409 0 0 0-5.809 3.11A9.678 9.678 0 0 1 4.85 5.871a3.407 3.407 0 0 0 1.055 4.551 3.395 3.395 0 0 1-1.544-.426v.043a3.411 3.411 0 0 0 2.734 3.343 3.418 3.418 0 0 1-1.54.058 3.412 3.412 0 0 0 3.185 2.367 6.839 6.839 0 0 1-5.047 1.412 9.647 9.647 0 0 0 5.226 1.531c6.27 0 9.698-5.194 9.698-9.699z" clip-rule="evenodd" opacity=".8"/>
</svg>
